<svg width="1320" height="61" viewBox="0 0 1320 61" fill="none" xmlns="http://www.w3.org/2000/svg">
<g opacity="0.75">
<g clip-path="url(#clip0_113_565)">
<path d="M81 59.75L138.5 1.25" stroke="#32357C" stroke-width="2"/>
<path d="M221 59.75L278.5 1.25" stroke="#32357C" stroke-width="2"/>
<path d="M21 59.75L78.5 1.25" stroke="#32357C" stroke-width="2"/>
<path d="M161 59.75L218.5 1.25" stroke="#32357C" stroke-width="2"/>
<path d="M61 59.75L118.5 1.25" stroke="#32357C" stroke-width="2"/>
<path d="M201 59.75L258.5 1.25" stroke="#32357C" stroke-width="2"/>
<path d="M1 59.75L58.5 1.25" stroke="#32357C" stroke-width="2"/>
<path d="M141 59.75L198.5 1.25" stroke="#32357C" stroke-width="2"/>
<path d="M41 59.75L98.5 1.25" stroke="#32357C" stroke-width="2"/>
<path d="M181 59.75L238.5 1.25" stroke="#32357C" stroke-width="2"/>
<path d="M-19 59.75L38.5 1.25" stroke="#32357C" stroke-width="2"/>
<path d="M121 59.75L178.5 1.25" stroke="#32357C" stroke-width="2"/>
<path d="M-39 59.75L18.5 1.25" stroke="#32357C" stroke-width="2"/>
<path d="M101 59.75L158.5 1.25" stroke="#32357C" stroke-width="2"/>
<path d="M361 59.75L418.5 1.25" stroke="#32357C" stroke-width="2"/>
<path d="M501 59.75L558.5 1.25" stroke="#32357C" stroke-width="2"/>
<path d="M301 59.75L358.5 1.25" stroke="#32357C" stroke-width="2"/>
<path d="M441 59.75L498.5 1.25" stroke="#32357C" stroke-width="2"/>
<path d="M341 59.75L398.5 1.25" stroke="#32357C" stroke-width="2"/>
<path d="M481 59.75L538.5 1.25" stroke="#32357C" stroke-width="2"/>
<path d="M281 59.75L338.5 1.25" stroke="#32357C" stroke-width="2"/>
<path d="M421 59.75L478.5 1.25" stroke="#32357C" stroke-width="2"/>
<path d="M321 59.75L378.5 1.25" stroke="#32357C" stroke-width="2"/>
<path d="M461 59.75L518.5 1.25" stroke="#32357C" stroke-width="2"/>
<path d="M261 59.75L318.5 1.25" stroke="#32357C" stroke-width="2"/>
<path d="M401 59.75L458.5 1.25" stroke="#32357C" stroke-width="2"/>
<path d="M241 59.75L298.5 1.25" stroke="#32357C" stroke-width="2"/>
<path d="M381 59.75L438.5 1.25" stroke="#32357C" stroke-width="2"/>
<path d="M643 59.75L700.5 1.25" stroke="#32357C" stroke-width="2"/>
<path d="M783 59.75L840.5 1.25" stroke="#32357C" stroke-width="2"/>
<path d="M583 59.75L640.5 1.25" stroke="#32357C" stroke-width="2"/>
<path d="M723 59.75L780.5 1.25" stroke="#32357C" stroke-width="2"/>
<path d="M623 59.75L680.5 1.25" stroke="#32357C" stroke-width="2"/>
<path d="M763 59.75L820.5 1.25" stroke="#32357C" stroke-width="2"/>
<path d="M563 59.75L620.5 1.25" stroke="#32357C" stroke-width="2"/>
<path d="M703 59.75L760.5 1.25" stroke="#32357C" stroke-width="2"/>
<path d="M603 59.75L660.5 1.25" stroke="#32357C" stroke-width="2"/>
<path d="M743 59.75L800.5 1.25" stroke="#32357C" stroke-width="2"/>
<path d="M543 59.75L600.5 1.25" stroke="#32357C" stroke-width="2"/>
<path d="M683 59.75L740.5 1.25" stroke="#32357C" stroke-width="2"/>
<path d="M523 59.75L580.5 1.25" stroke="#32357C" stroke-width="2"/>
<path d="M663 59.75L720.5 1.25" stroke="#32357C" stroke-width="2"/>
<path d="M923 59.75L980.5 1.25" stroke="#32357C" stroke-width="2"/>
<path d="M1063 59.75L1120.5 1.25" stroke="#32357C" stroke-width="2"/>
<path d="M863 59.75L920.5 1.25" stroke="#32357C" stroke-width="2"/>
<path d="M1003 59.75L1060.5 1.25" stroke="#32357C" stroke-width="2"/>
<path d="M903 59.75L960.5 1.25" stroke="#32357C" stroke-width="2"/>
<path d="M1043 59.75L1100.5 1.25" stroke="#32357C" stroke-width="2"/>
<path d="M843 59.75L900.5 1.25" stroke="#32357C" stroke-width="2"/>
<path d="M983 59.75L1040.5 1.25" stroke="#32357C" stroke-width="2"/>
<path d="M883 59.75L940.5 1.25" stroke="#32357C" stroke-width="2"/>
<path d="M1023 59.75L1080.5 1.25" stroke="#32357C" stroke-width="2"/>
<path d="M823 59.75L880.5 1.25" stroke="#32357C" stroke-width="2"/>
<path d="M963 59.75L1020.5 1.25" stroke="#32357C" stroke-width="2"/>
<path d="M803 59.75L860.5 1.25" stroke="#32357C" stroke-width="2"/>
<path d="M943 59.75L1000.5 1.25" stroke="#32357C" stroke-width="2"/>
</g>
<rect x="1" y="1" width="1318" height="59" rx="4" stroke="#32357C" stroke-width="2"/>
</g>
<defs>
<clipPath id="clip0_113_565">
<rect width="1320" height="61" rx="5" fill="white"/>
</clipPath>
</defs>
</svg>
