<svg width="28" height="28" viewBox="0 0 28 28" fill="none" xmlns="http://www.w3.org/2000/svg">
<path d="M26.0927 18.6206C24.6704 17.4776 23.3657 16.9219 22.104 16.9219C20.2788 16.9219 18.9646 18.0829 17.7749 19.2723C17.638 19.4093 17.4724 19.4731 17.2536 19.4731C16.251 19.4732 14.4872 18.2176 12.0112 15.7413C9.09838 12.8283 7.99707 10.9755 8.73761 10.2347C10.7451 8.22787 11.3718 6.21606 8.2982 2.3935C7.19787 1.024 6.12131 0.358398 5.00704 0.358398C3.50432 0.358398 2.36199 1.5596 1.35414 2.61949C1.17989 2.8027 1.0153 2.97577 0.853914 3.13715C-0.285206 4.27618 -0.284621 6.76063 0.855571 9.7834C2.10657 13.1 4.57659 16.7079 7.81074 19.9425C10.3119 22.4434 13.0332 24.4646 15.6808 25.8216C17.9923 27.0064 20.2344 27.6412 21.9941 27.6412C21.9942 27.6412 21.9944 27.6412 21.9947 27.6412C23.0959 27.6412 23.9905 27.401 24.5812 26.9125C25.7812 25.9203 28.0149 24.0826 27.9999 21.8996C27.9918 20.7289 27.3502 19.6316 26.0927 18.6206Z" fill="#00C3E7"/>
</svg>
