<svg width="32" height="44" viewBox="0 0 32 44" fill="none" xmlns="http://www.w3.org/2000/svg">
<path d="M8.30029 20.0752H23.7002M8.30029 26.6751H23.7002M8.30029 33.2751H18.2002" stroke="#32357C" stroke-width="3.75" stroke-linecap="round" stroke-linejoin="round"/>
<path fill-rule="evenodd" clip-rule="evenodd" d="M3.90027 3.30046C3.7544 3.30046 3.6145 3.35841 3.51136 3.46155C3.40822 3.5647 3.35027 3.70459 3.35027 3.85046V40.1502C3.35027 40.2961 3.40822 40.436 3.51136 40.5391C3.6145 40.6423 3.7544 40.7002 3.90027 40.7002H28.1001C28.246 40.7002 28.3859 40.6423 28.489 40.5391C28.5921 40.436 28.6501 40.2961 28.6501 40.1502V12.6504H20.9501C20.5125 12.6504 20.0929 12.4766 19.7834 12.1671C19.474 11.8577 19.3002 11.438 19.3002 11.0004V3.30046H3.90027ZM22.6001 5.63382L26.3167 9.35042H22.6001V5.63382ZM0.050293 3.85046C0.050293 1.72418 1.77398 0.000488281 3.90027 0.000488281H20.9501C21.3877 0.000488281 21.8073 0.174287 22.117 0.48366L31.4669 9.83359C31.6201 9.98683 31.7416 10.1687 31.8245 10.3689C31.9074 10.5691 31.9501 10.7837 31.9501 11.0004V40.1502C31.9501 42.2765 30.2264 44.0002 28.1001 44.0002H3.90027C1.77398 44.0002 0.050293 42.2765 0.050293 40.1502V3.85046Z" fill="#32357C"/>
</svg>
