<svg width="52" height="50" viewBox="0 0 52 50" fill="none" xmlns="http://www.w3.org/2000/svg">
<path fill-rule="evenodd" clip-rule="evenodd" d="M29.6153 5.04809C27.5535 3.19863 24.4465 3.19863 22.3847 5.04809L7.87299 18.065C6.71122 19.1072 6.04651 20.6009 6.04651 22.1693V46.339H9.67442V33.3983C9.67435 31.2056 9.67427 29.3771 9.86769 27.9254C10.0718 26.3931 10.5209 25.0097 11.6225 23.898C12.7241 22.7863 14.095 22.3333 15.6134 22.1273C17.0519 21.9321 18.864 21.9321 21.037 21.9321H30.963C33.1361 21.9321 34.9481 21.9321 36.3867 22.1273C37.9051 22.3333 39.276 22.7863 40.3774 23.898C41.4791 25.0097 41.9282 26.3931 42.1323 27.9254C42.3258 29.3771 42.3256 31.2056 42.3256 33.3986V46.339H45.9535V22.1693C45.9535 20.6009 45.2889 19.1072 44.127 18.065L29.6153 5.04809ZM49.5814 46.339V22.1693C49.5814 19.5551 48.4734 17.0656 46.5373 15.3287L32.0257 2.31183C28.5891 -0.770611 23.4109 -0.770611 19.9744 2.31183L5.46276 15.3287C3.52645 17.0656 2.4186 19.5551 2.4186 22.1693V46.339H1.81395C0.812143 46.339 0 47.1583 0 48.1695C0 49.1804 0.812143 50 1.81395 50H50.186C51.1878 50 52 49.1804 52 48.1695C52 47.1583 51.1878 46.339 50.186 46.339H49.5814ZM38.6977 46.339V33.5255C38.6977 31.1724 38.6938 29.5921 38.5368 28.413C38.3866 27.2869 38.1274 26.8049 37.8122 26.4868C37.4971 26.1688 37.0194 25.9069 35.9032 25.7556C34.735 25.597 33.1687 25.5933 30.8372 25.5933H21.1628C18.8312 25.5933 17.265 25.597 16.0968 25.7556C14.9807 25.9069 14.503 26.1688 14.1878 26.4868C13.8726 26.8049 13.6133 27.2869 13.4633 28.413C13.3062 29.5921 13.3023 31.1724 13.3023 33.5255V46.339H38.6977ZM19.3488 16.4407C19.3488 15.4297 20.161 14.6102 21.1628 14.6102H30.8372C31.839 14.6102 32.6512 15.4297 32.6512 16.4407C32.6512 17.4516 31.839 18.2712 30.8372 18.2712H21.1628C20.161 18.2712 19.3488 17.4516 19.3488 16.4407ZM16.9302 32.3051C16.9302 31.294 17.7424 30.4746 18.7442 30.4746H33.2558C34.2576 30.4746 35.0698 31.294 35.0698 32.3051C35.0698 33.3161 34.2576 34.1356 33.2558 34.1356H18.7442C17.7424 34.1356 16.9302 33.3161 16.9302 32.3051ZM16.9302 39.6272C16.9302 38.616 17.7424 37.7966 18.7442 37.7966H33.2558C34.2576 37.7966 35.0698 38.616 35.0698 39.6272C35.0698 40.6381 34.2576 41.4574 33.2558 41.4574H18.7442C17.7424 41.4574 16.9302 40.6381 16.9302 39.6272Z" fill="#32357C"/>
</svg>
