<svg width="312" height="37" viewBox="0 0 312 37" fill="none" xmlns="http://www.w3.org/2000/svg">
<path d="M49.0033 7.10432H59L52.4013 0.5H17.9847C8.04922 0.5 0 8.55605 0 18.5C0 28.444 8.04922 36.5 17.9847 36.5H52.4559L31.3251 15.3512H12.6526L19.2513 21.9555H28.5875L36.521 29.8957H17.9847C16.4456 29.8957 14.9543 29.5958 13.5583 29.0029C12.8841 28.7166 12.2372 28.3622 11.6244 27.9532C11.0182 27.5444 10.453 27.074 9.93549 26.5561C9.41797 26.0381 8.94805 25.4724 8.53948 24.8658C8.13091 24.2592 7.77678 23.6049 7.49076 22.9302C6.8983 21.5329 6.59869 20.0404 6.59869 18.5C6.59869 16.9597 6.8983 15.4671 7.49076 14.0699C7.77678 13.3951 8.13091 12.7476 8.53948 12.1343C8.94805 11.5276 9.41797 10.9619 9.93549 10.4439C10.453 9.92599 11.0182 9.45573 11.6244 9.04677C12.2304 8.63783 12.8841 8.28343 13.5583 7.99717C14.9543 7.40421 16.4456 7.10432 17.9847 7.10432H32.4486L59 33.6784V24.3342L41.7849 7.10432H49.0033Z" fill="#00C3E7"/>
<path d="M94.0791 28.7814C89.213 29.294 84.7481 29.5459 80.6674 29.5459C78.627 29.5459 77.1331 29.0756 76.1769 28.1345C75.2208 27.1932 74.7427 25.7229 74.7427 23.7149V13.8923C74.7427 11.7413 75.2378 10.1869 76.2281 9.21207C77.2184 8.23753 78.7978 7.75012 80.9833 7.75012H92.2095V12.0438H82.2297C80.9833 12.0438 80.3601 12.6572 80.3601 13.884V23.7062C80.3601 24.1769 80.4966 24.5467 80.7784 24.8238C81.0601 25.1011 81.4357 25.2355 81.9138 25.2355C84.3042 25.2355 86.4897 25.1852 88.4617 25.0844V20.6309H84.4066V16.9509H94.0706V28.7647L94.0791 28.7814Z" fill="#32357C"/>
<path d="M103.681 24.9515H115.061V29.2452H98.064V7.76001H103.673V24.9431L103.681 24.9515Z" fill="#32357C"/>
<path d="M137.768 23.4112C137.768 25.5623 137.272 27.1167 136.282 28.0915C135.292 29.0661 133.713 29.5535 131.527 29.5535H123.733C121.547 29.5535 119.968 29.0661 118.978 28.0915C117.987 27.1167 117.492 25.5623 117.492 23.4112V13.5887C117.492 11.4377 117.987 9.88328 118.978 8.90873C119.968 7.93391 121.547 7.4465 123.733 7.4465H131.527C133.713 7.4465 135.292 7.93391 136.282 8.90873C137.272 9.88328 137.768 11.4377 137.768 13.5887V23.4112ZM132.159 13.5887C132.159 12.362 131.535 11.7486 130.289 11.7486H124.988C123.741 11.7486 123.118 12.362 123.118 13.5887V23.4112C123.118 24.638 123.741 25.2514 124.988 25.2514H130.289C131.535 25.2514 132.159 24.638 132.159 23.4112V13.5887Z" fill="#32357C"/>
<path d="M141.766 7.76001H154.238C156.279 7.76001 157.773 8.2139 158.729 9.12978C159.685 10.0373 160.163 11.4235 160.163 13.2888C160.163 14.5156 159.89 15.5156 159.352 16.2801C158.814 17.0448 158.148 17.5825 157.354 17.8934C159.036 18.347 160.18 19.4478 160.786 21.2039C160.991 21.8427 161.102 22.5737 161.102 23.4139C161.102 25.4219 160.624 26.8925 159.668 27.8335C158.712 28.7746 157.218 29.2452 155.177 29.2452H141.766V7.76001ZM154.554 13.9022C154.554 12.6755 153.931 12.0621 152.684 12.0621H147.383V16.3558H152.684C153.931 16.3558 154.554 15.7424 154.554 14.5156V13.9022ZM155.493 22.498C155.493 21.2712 154.87 20.6578 153.624 20.6578H147.392V24.9515H153.624C154.87 24.9515 155.493 24.3381 155.493 23.1114V22.498Z" fill="#32357C"/>
<path d="M168.668 29.2455H162.589L170.853 7.76059H177.085L185.349 29.2455H179.271L177.871 25.4054H170.076L168.676 29.2455H168.668ZM171.476 21.4229H176.462L173.969 14.2134L171.476 21.4229Z" fill="#32357C"/>
<path d="M193.394 24.9515H204.773V29.2452H187.776V7.76001H193.385V24.9431L193.394 24.9515Z" fill="#32357C"/>
<path d="M214.688 29.2419H209.079V12.0588H202.531V7.76535H221.236V12.0588H214.688V29.2419Z" fill="#32357C"/>
<path d="M224.296 7.76001H237.392C239.577 7.76001 241.157 8.24742 242.147 9.22224C243.137 10.1968 243.632 11.7512 243.632 13.9022V16.6666C243.632 18.3641 243.35 19.6833 242.779 20.6243C242.207 21.5653 241.293 22.1871 240.047 22.498L243.948 29.2536H237.87L234.284 22.8089H229.922V29.2536H224.313V7.76001H224.296ZM238.015 13.9022C238.015 12.6755 237.392 12.0621 236.145 12.0621H229.913V18.5068H236.145C237.392 18.5068 238.015 17.8934 238.015 16.6666V13.9022Z" fill="#32357C"/>
<path d="M251.789 29.2455H245.71L253.974 7.76059H260.206L268.47 29.2455H262.392L260.992 25.4054H253.197L251.797 29.2455H251.789ZM254.598 21.4229H259.583L257.09 14.2134L254.598 21.4229Z" fill="#32357C"/>
<path d="M289.297 29.2452H283.372L275.885 16.3558V29.2452H270.276V7.76001H276.201L283.688 20.6494V7.76001H289.297V29.2452Z" fill="#32357C"/>
<path d="M293.27 24.7902C298.964 25.0927 302.822 25.2522 304.837 25.2522C305.315 25.2522 305.691 25.1179 305.973 24.8405C306.254 24.5634 306.391 24.1936 306.391 23.7232V20.9588H299.22C297.034 20.9588 295.455 20.4714 294.464 19.4966C293.474 18.5221 292.979 16.9676 292.979 14.8166V13.8923C292.979 11.7413 293.474 10.1869 294.464 9.21207C295.455 8.23753 297.034 7.75012 299.22 7.75012H310.164V12.0438H300.466C299.22 12.0438 298.596 12.6572 298.596 13.884V14.4973C298.596 15.7241 299.22 16.3375 300.466 16.3375H306.075C308.115 16.3375 309.609 16.8079 310.565 17.7489C311.522 18.6902 312 20.1605 312 22.1686V23.7062C312 25.7145 311.522 27.1848 310.565 28.1259C309.609 29.0672 308.115 29.5375 306.075 29.5375C305.016 29.5375 303.889 29.5208 302.711 29.4789L299.843 29.3526C297.726 29.2518 295.532 29.1091 293.261 28.9242V24.7819L293.27 24.7902Z" fill="#32357C"/>
</svg>
