<svg width="46" height="36" viewBox="0 0 46 36" fill="none" xmlns="http://www.w3.org/2000/svg">
<path fill-rule="evenodd" clip-rule="evenodd" d="M15.9779 28.8495C15.9923 30.8697 14.8169 32.6992 13.0011 33.4828C11.1854 34.2661 9.08828 33.8485 7.6903 32.425C6.29234 31.0018 5.8698 28.854 6.62025 26.9861C7.37071 25.1179 9.14587 23.899 11.1157 23.899C12.4005 23.8942 13.6346 24.4129 14.5465 25.3413C15.4583 26.2697 15.9732 27.5317 15.9779 28.8495Z" stroke="#32357C" stroke-width="3.75" stroke-linecap="round" stroke-linejoin="round"/>
<path fill-rule="evenodd" clip-rule="evenodd" d="M39.1435 28.8495C39.1578 30.8697 37.9824 32.6992 36.1666 33.4828C34.351 34.2661 32.2538 33.8485 30.8558 32.425C29.4579 31.0018 29.0353 28.854 29.7858 26.9861C30.5361 25.1179 32.3114 23.899 34.2811 23.899C35.5661 23.8942 36.8001 24.4129 37.7119 25.3413C38.6238 26.2697 39.1387 27.5317 39.1435 28.8495Z" stroke="#32357C" stroke-width="3.75" stroke-linecap="round" stroke-linejoin="round"/>
<path d="M28.8485 30.5576C29.7917 30.5576 30.5564 29.7931 30.5564 28.8497C30.5564 27.9065 29.7917 27.1418 28.8485 27.1418V30.5576ZM15.9713 27.1418C15.0281 27.1418 14.2634 27.9065 14.2634 28.8497C14.2634 29.7931 15.0281 30.5576 15.9713 30.5576V27.1418ZM27.1407 28.8497C27.1407 29.7931 27.9053 30.5576 28.8485 30.5576C29.7917 30.5576 30.5564 29.7931 30.5564 28.8497H27.1407ZM30.5564 16.856C30.5564 15.9128 29.7917 15.1482 28.8485 15.1482C27.9053 15.1482 27.1407 15.9128 27.1407 16.856H30.5564ZM28.8485 27.1418C27.9053 27.1418 27.1407 27.9065 27.1407 28.8497C27.1407 29.7931 27.9053 30.5576 28.8485 30.5576V27.1418ZM29.4169 30.5576C30.3601 30.5576 31.1247 29.7931 31.1247 28.8497C31.1247 27.9065 30.3601 27.1418 29.4169 27.1418V30.5576ZM39.1339 27.1421C38.1907 27.1462 37.4295 27.914 37.4336 28.8572C37.4377 29.8004 38.2057 30.5619 39.1489 30.5576L39.1339 27.1421ZM44.2923 23.5189L46.0002 23.5112C45.9997 23.4128 45.9908 23.3149 45.9735 23.2181L44.2923 23.5189ZM44.7812 16.5552C44.615 15.6268 43.7278 15.0088 42.7992 15.175C41.8708 15.341 41.2528 16.2284 41.419 17.157L44.7812 16.5552ZM28.8462 4.48671C27.9031 4.48671 27.1384 5.25132 27.1384 6.19456C27.1384 7.13777 27.9031 7.90241 28.8462 7.90241V4.48671ZM36.9968 6.19456V7.90241C37.0082 7.90241 37.0198 7.9023 37.0314 7.90205L36.9968 6.19456ZM42.1454 11.5253L40.4382 11.4767C40.4348 11.5936 40.4435 11.7106 40.4642 11.8257L42.1454 11.5253ZM41.4165 17.1566C41.5825 18.085 42.4697 18.7032 43.3983 18.5374C44.3267 18.3714 44.947 17.4838 44.7812 16.5552L41.4165 17.1566ZM30.5518 6.19456C30.5518 5.25132 29.7897 4.48671 28.8462 4.48671C27.9031 4.48671 27.1384 5.25132 27.1384 6.19456H30.5518ZM27.1361 16.856C27.1361 17.7994 27.9008 18.5639 28.844 18.5639C29.7874 18.5639 30.5518 17.7994 30.5518 16.856H27.1361ZM27.1384 6.19456C27.1384 7.13777 27.9031 7.90241 28.8462 7.90241C29.7897 7.90241 30.5518 7.13777 30.5518 6.19456H27.1384ZM28.844 4.37285H30.552L30.5518 4.3606L28.844 4.37285ZM26.4195 1.92037V3.62825L26.4309 3.62818L26.4195 1.92037ZM4.53943 1.92037L4.52322 3.62823H4.53943V1.92037ZM2.10831 4.36829L0.400459 4.35301V4.36829H2.10831ZM2.10831 26.3995H0.400391L0.400527 26.415L2.10831 26.3995ZM4.53943 28.8474V27.1396L4.52322 27.1398L4.53943 28.8474ZM6.25346 30.5553C7.19667 30.5553 7.96131 29.7908 7.96131 28.8474C7.96131 27.9042 7.19667 27.1396 6.25346 27.1396V30.5553ZM28.8485 15.1482C27.9053 15.1482 27.1407 15.9128 27.1407 16.856C27.1407 17.7994 27.9053 18.5639 28.8485 18.5639V15.1482ZM43.1023 18.5639C44.0455 18.5639 44.8101 17.7994 44.8101 16.856C44.8101 15.9128 44.0455 15.1482 43.1023 15.1482V18.5639ZM28.8485 27.1418H15.9713V30.5576H28.8485V27.1418ZM30.5564 28.8497V16.856H27.1407V28.8497H30.5564ZM28.8485 30.5576H29.4169V27.1418H28.8485V30.5576ZM39.1489 30.5576C40.9886 30.5496 42.7404 29.7918 44.0218 28.4655L41.5654 26.0921C40.9146 26.7657 40.0391 27.138 39.1339 27.1421L39.1489 30.5576ZM44.0218 28.4655C45.3018 27.1409 46.0086 25.3579 46.0002 23.5112L42.5844 23.5269C42.589 24.4951 42.2176 25.4171 41.5654 26.0921L44.0218 28.4655ZM45.9735 23.2181L44.7812 16.5552L41.419 17.157L42.6111 23.82L45.9735 23.2181ZM28.8462 7.90241H36.9968V4.48671H28.8462V7.90241ZM37.0314 7.90205C37.9313 7.88381 38.8087 8.2441 39.4566 8.91467L41.9134 6.54173C40.6152 5.19756 38.8265 4.44925 36.962 4.48705L37.0314 7.90205ZM39.4566 8.91467C40.1058 9.5869 40.4656 10.5122 40.4382 11.4767L43.8526 11.574C43.9059 9.7037 43.21 7.88424 41.9134 6.54173L39.4566 8.91467ZM40.4642 11.8257L41.4165 17.1566L44.7812 16.5552L43.8266 11.2249L40.4642 11.8257ZM27.1384 6.19456L27.1361 16.856H30.5518V6.19456H27.1384ZM30.5518 6.19456L30.552 4.37285H27.1361L27.1384 6.19456H30.5518ZM30.5518 4.3606C30.5357 2.09507 28.7212 0.197169 26.4083 0.21254L26.4309 3.62818C26.7772 3.62588 27.1329 3.9233 27.1363 4.38508L30.5518 4.3606ZM26.4195 0.212517H4.53943V3.62823L26.4195 3.62825V0.212517ZM4.55567 0.212586C3.44964 0.202088 2.39364 0.643169 1.61775 1.42441L4.04133 3.83135C4.17732 3.69442 4.35145 3.62661 4.52322 3.62823L4.55567 0.212586ZM1.61775 1.42441C0.84334 2.20417 0.410251 3.25851 0.400459 4.35301L3.8161 4.38355C3.81803 4.1675 3.90388 3.96975 4.04133 3.83135L1.61775 1.42441ZM0.400459 4.36829L0.400391 26.3995H3.81617V4.36829H0.400459ZM0.400527 26.415C0.410319 27.5094 0.84334 28.5637 1.61775 29.3434L4.04133 26.9364C3.90388 26.7982 3.81803 26.6003 3.8161 26.3842L0.400527 26.415ZM1.61775 29.3434C2.39364 30.1247 3.44964 30.5658 4.55567 30.5553L4.52322 27.1398C4.35145 27.1414 4.17732 27.0735 4.04133 26.9364L1.61775 29.3434ZM4.53943 30.5553H6.25346V27.1396H4.53943V30.5553ZM28.8485 18.5639H43.1023V15.1482H28.8485V18.5639Z" fill="#32357C"/>
</svg>
