<svg width="47" height="47" viewBox="0 0 47 47" fill="none" xmlns="http://www.w3.org/2000/svg">
<path d="M22.0889 25.6849C21.6421 25.6849 21.2698 25.3126 21.2698 24.8658C21.2698 24.419 21.6421 24.0467 22.0889 24.0467H25.8866C26.3334 24.0467 26.7057 24.419 26.7057 24.8658C26.7057 25.3126 26.3334 25.6849 25.8866 25.6849H22.0889ZM8.83425 16.1535C8.16407 16.1535 7.56836 15.5578 7.56836 14.8876C7.56836 14.2174 8.16407 13.6217 8.83425 13.6217H9.98845C10.398 13.6217 10.7331 13.3239 10.7331 12.9143C11.0682 8.29751 13.8606 4.09028 18.0306 2.00528C18.2168 1.89358 18.4402 1.85635 18.5891 1.85635C19.2593 1.85635 19.855 2.45206 19.855 3.12224V5.72849C19.855 6.13805 20.1901 6.47314 20.5996 6.47314C21.0092 6.47314 21.3443 6.13805 21.3443 5.72849V1.89358C21.3443 1.26063 21.8283 0.702151 22.424 0.627687C22.908 0.553223 23.4293 0.553223 23.9133 0.553223C24.4718 0.553223 25.0675 0.590455 25.5515 0.627687C26.1844 0.702151 26.6312 1.2234 26.6312 1.89358V5.69126C26.6312 6.10082 26.9663 6.43591 27.3759 6.43591C27.7854 6.43591 28.1205 6.10082 28.1205 5.69126V3.12224C28.1205 2.45206 28.7162 1.85635 29.3864 1.85635C29.5353 1.85635 29.7587 1.89358 29.9821 2.00528C34.2266 4.20198 36.9445 8.26028 37.2796 12.9143C37.3169 13.3239 37.6147 13.6217 38.0243 13.6217H39.1785C39.8486 13.6217 40.4444 14.2174 40.4444 14.8876C40.4444 15.5578 39.8486 16.1535 39.1785 16.1535H8.83425ZM35.2319 13.9196C35.1202 13.6217 35.0829 13.3611 35.0457 13.0632C34.8223 9.82403 33.1096 6.80823 30.4661 4.87215V5.69126C30.4661 7.32948 29.1258 8.66984 27.4876 8.66984C25.8493 8.66984 24.509 7.32948 24.509 5.69126V2.78715H23.6154V5.65403C23.6154 7.29225 22.2751 8.6326 20.6368 8.6326C18.9986 8.6326 17.6583 7.29225 17.6583 5.65403V4.79769C14.9031 6.73376 13.1904 9.7868 12.9298 13.0632C12.8926 13.3611 12.8553 13.6217 12.7436 13.9196H35.2319Z" fill="#32357C"/>
<path d="M3.98445 46.647C3.01642 46.647 2.12285 46.2374 1.52713 45.53C1.00588 44.897 0.782488 44.0779 0.968649 43.2961C2.45794 35.6635 9.42035 29.4085 18.4678 27.6213C15.0052 25.3874 12.8829 21.2918 12.8829 16.7123V16.4517H35.0733V16.7123C35.0733 21.2546 32.9511 25.3874 29.4513 27.6213C38.4987 29.4457 45.4611 35.7007 46.9504 43.2961C47.0993 44.0779 46.9131 44.897 46.3919 45.53C45.7962 46.2374 44.9026 46.647 43.9346 46.647H3.98445ZM23.9409 29.2968C18.8401 29.2968 13.9254 30.786 10.0905 33.5412C6.40455 36.1847 3.94722 39.7962 3.16535 43.7056C3.12811 43.8918 3.20258 44.0407 3.27704 44.0779C3.4632 44.3013 3.6866 44.413 3.98445 44.413H43.9718C44.2697 44.413 44.5303 44.3013 44.6792 44.1152C44.7164 44.0779 44.8281 43.929 44.7537 43.7428C44.009 39.7962 41.5517 36.1847 37.8285 33.5412C33.9564 30.786 29.0417 29.2968 23.9409 29.2968ZM15.2286 18.6856C16.0477 23.5258 19.6592 27.0256 23.9037 27.0256C28.1481 27.0256 31.7597 23.5258 32.5788 18.6856H15.2286Z" fill="#32357C"/>
</svg>
